<svg width="176" height="52" viewBox="0 0 176 52" fill="none" xmlns="http://www.w3.org/2000/svg" role="img" aria-label="Website vindhya.link">
  <defs>
    <linearGradient id="g" x1="0" y1="0" x2="176" y2="52">
      <stop stop-color="#431407"/>
      <stop offset="0.55" stop-color="#7C2D12"/>
      <stop offset="1" stop-color="#F97316"/>
    </linearGradient>
    <linearGradient id="shine" x1="-70" y1="0" x2="70" y2="0">
      <stop stop-color="#FFFFFF" stop-opacity="0"/>
      <stop offset="0.5" stop-color="#FFFFFF" stop-opacity="0.45"/>
      <stop offset="1" stop-color="#FFFFFF" stop-opacity="0"/>
      <animateTransform attributeName="gradientTransform" type="translate" values="-80 0;250 0;-80 0" dur="3.6s" repeatCount="indefinite"/>
    </linearGradient>
  </defs>
  <rect x="2" y="2" width="172" height="48" rx="16" fill="url(#g)" stroke="#FDBA74"/>
  <rect x="2" y="2" width="172" height="48" rx="16" fill="url(#shine)" opacity="0.28"/>
  <circle cx="31" cy="26" r="14" fill="#FFF7ED" fill-opacity="0.16" stroke="#FED7AA"/>
  <path d="M21 26H41M31 16C34.2 18.8 36 22.2 36 26C36 29.8 34.2 33.2 31 36C27.8 33.2 26 29.8 26 26C26 22.2 27.8 18.8 31 16ZM23.6 20.3C25.5 21.2 28 21.7 31 21.7C34 21.7 36.5 21.2 38.4 20.3M23.6 31.7C25.5 30.8 28 30.3 31 30.3C34 30.3 36.5 30.8 38.4 31.7" stroke="#FFEDD5" stroke-width="1.7" stroke-linecap="round" stroke-linejoin="round"/>
  <text x="99" y="24" text-anchor="middle" fill="#FFFFFF" font-family="Inter, Segoe UI, Arial, sans-serif" font-size="15" font-weight="900">Portfolio</text>
  <text x="99" y="39" text-anchor="middle" fill="#FFEDD5" font-family="Inter, Segoe UI, Arial, sans-serif" font-size="11" font-weight="800">vindhya.link</text>
</svg>
