<svg width="1200" height="270" viewBox="0 0 1200 270" fill="none" xmlns="http://www.w3.org/2000/svg" role="img" aria-label="Animated GitHub energy panel">
  <rect width="1200" height="270" rx="22" fill="#060A13"/>
  <text x="600" y="52" text-anchor="middle" fill="#FFFFFF" font-family="Inter, Segoe UI, Arial, sans-serif" font-size="30" font-weight="900">GITHUB ENERGY</text>
  <g stroke="#1F2937" stroke-width="1">
    <path d="M120 86H1080"/><path d="M120 126H1080"/><path d="M120 166H1080"/><path d="M120 206H1080"/>
  </g>
  <path d="M120 204C226 142 314 174 406 134C494 96 568 114 650 82C756 41 854 96 948 64C1012 42 1054 44 1080 38" stroke="#38BDF8" stroke-width="6" stroke-linecap="round" stroke-linejoin="round">
    <animate attributeName="stroke-dasharray" values="40 900;300 650;40 900" dur="4s" repeatCount="indefinite"/>
    <animate attributeName="stroke-dashoffset" values="0;-450;-900" dur="7s" repeatCount="indefinite"/>
  </path>
  <path d="M120 214C250 188 346 202 446 164C548 126 650 154 744 112C844 68 968 102 1080 74" stroke="#4ADE80" stroke-width="4" stroke-linecap="round" stroke-linejoin="round" opacity="0.9">
    <animate attributeName="stroke-dasharray" values="20 700;220 520;20 700" dur="5s" repeatCount="indefinite"/>
    <animate attributeName="stroke-dashoffset" values="0;-380;-760" dur="8s" repeatCount="indefinite"/>
  </path>
  <g font-family="Inter, Segoe UI, Arial, sans-serif" font-weight="900">
    <text x="170" y="238" fill="#CBD5E1" font-size="18">Code</text>
    <text x="450" y="238" fill="#CBD5E1" font-size="18">Analyze</text>
    <text x="740" y="238" fill="#CBD5E1" font-size="18">Contribute</text>
    <text x="984" y="238" fill="#CBD5E1" font-size="18">Level Up</text>
  </g>
</svg>
